<svg width="99" height="80" viewBox="0 0 99 80" fill="none" xmlns="http://www.w3.org/2000/svg">
<path d="M95.6525 38.7378L91.8193 36.6498C90.1364 28.3911 86.1161 21.0051 80.4753 15.1772C77.2965 11.8738 73.619 9.10012 69.5364 6.91858V4.48773C69.5364 3.20997 67.1056 2.05688 63.1788 1.24659C59.5014 0.467472 54.515 0 49.03 0C47.0978 0 45.2279 0.0623296 43.4204 0.155824C34.8189 0.685625 28.5236 2.43085 28.5236 4.45656V6.88742C25.7811 8.35216 23.2256 10.0974 20.8571 12.0919C13.5333 18.3249 8.26649 26.8952 6.24078 36.6498L2.40751 38.7378C0.662283 39.6728 -0.27266 41.6362 0.0701528 43.5684L3.56061 63.171C3.90342 65.1656 5.52399 66.6615 7.51853 66.9108L13.3775 67.6276C16.5563 71.0557 20.5766 73.7359 25.2201 75.6993C31.4531 78.3483 38.7768 79.7507 46.6615 79.9688C47.4406 80 48.2509 80 49.03 80C55.0448 80 60.7791 79.3455 66.0148 78.0055C72.8711 76.2291 78.8547 73.2372 83.3736 68.9365C83.9034 68.4379 84.4332 67.9081 84.9318 67.3471L90.448 66.8173C92.5049 66.6303 94.1566 65.1032 94.5306 63.0464L97.9899 43.5372C98.3327 41.6362 97.3978 39.6728 95.6525 38.7378Z" fill="url(#paint0_linear_646_1158)"/>
<path d="M49.0303 69.3104C38.6213 69.3104 30.0821 67.16 24.3478 63.0774C18.7693 59.1195 16.058 53.354 16.058 45.4693C16.058 27.2691 30.8612 12.4658 49.0615 12.4658C67.2617 12.4658 82.065 27.2691 82.065 45.4693C82.065 53.354 79.3536 59.0883 73.7751 63.0774C67.9785 67.16 59.4393 69.3104 49.0303 69.3104Z" fill="white"/>
<path d="M49.0301 61.7064C42.5478 61.7064 36.533 57.9043 33.697 52.0453L38.9327 49.5521C40.8338 53.4789 44.6982 55.9409 49.0301 55.9409C53.362 55.9409 57.2576 53.5101 59.1275 49.5521L64.3631 52.0453C61.5271 57.9043 55.5124 61.7064 49.0301 61.7064Z" fill="#121826"/>
<defs>
<linearGradient id="paint0_linear_646_1158" x1="25.2456" y1="73.1891" x2="78.8342" y2="14.8488" gradientUnits="userSpaceOnUse">
<stop stop-color="#FF61D3"/>
<stop offset="0.5" stop-color="#B318FF"/>
<stop offset="1" stop-color="#00F0FF"/>
</linearGradient>
</defs>
</svg>
